<svg xmlns="http://www.w3.org/2000/svg" viewBox="0 0 303 160">
<path d="M322.06,444.45v19.48h-6.21V444.45H304.67v-5.36h28.57v5.36Z" transform="translate(-148.67 -143.8)"/>
<path d="M374,447.25a8.86,8.86,0,0,1-.43,2.87,7.51,7.51,0,0,1-1.12,2.15,7,7,0,0,1-1.56,1.51,8.86,8.86,0,0,1-1.76,1l4.33,9.19h-6.67l-4-8.48h-13v8.48h-6.25V439.09h22.32a10,10,0,0,1,2.4.35,8,8,0,0,1,2.68,1.26,7.45,7.45,0,0,1,2.16,2.48A8.24,8.24,0,0,1,374,447.25Zm-6.25,0a2.84,2.84,0,0,0-.32-1.44,2.49,2.49,0,0,0-.78-.85,2.86,2.86,0,0,0-.94-.41,3.72,3.72,0,0,0-.76-.11H349.78v5.64h15.15a2.92,2.92,0,0,0,.67-.12,3.21,3.21,0,0,0,.94-.44,2.94,2.94,0,0,0,.83-.87A2.54,2.54,0,0,0,367.73,447.25Z" transform="translate(-148.67 -143.8)"/>
<path d="M412.19,463.93l-2.87-5H391.82l-2.87,5h-6.64l14.26-24.84h8l14.26,24.84Zm-11.6-20.19-5.68,9.86h11.35Z" transform="translate(-148.67 -143.8)"/>
<path d="M446.47,463.93h-7.95l-13-24.84h6.92l10,19.59,10-19.59h6.92Z" transform="translate(-148.67 -143.8)"/>
<path d="M468.47,463.93V439.09h29.91v5.36H474.72v4.47h20.83v4.83H474.72v4.83h24.59v5.36Z" transform="translate(-148.67 -143.8)"/>
<path d="M509.77,463.93V439.09H516v19.48h22v5.36Z" transform="translate(-148.67 -143.8)"/>
<path d="M519.23,391.91l52.95-5.59c.38,0,.38-.12,0-.17l-92.51-13.54h-.11c-.29,0-.4.21-.23.5l13.8,23.9c.19.33,0,.59-.34.59h-10l15.85,27.45h38.35c.38,0,.53-.27.34-.6l-18.39-31.88A.41.41,0,0,1,519.23,391.91Z" transform="translate(-148.67 -143.8)"/>
<path d="M387.08,397.6c-.38,0-.39-.07,0-.16l12.85-3a1.81,1.81,0,0,0,1-.75l20-34.66a.36.36,0,0,1,.69,0l21.91,38c.19.33,0,.59-.34.59l-56.11,0m34.2-93.76a.42.42,0,0,0-.34.25L367.29,397a1.31,1.31,0,0,1-1,.59H349.1c-.38,0-.53-.27-.34-.59l13.8-23.9c.17-.29.07-.5-.23-.5h-.11l-92.51,13.54c-.38.06-.37.13,0,.17l52.95,5.59a.41.41,0,0,1,.34.67L304.6,424.46c-.19.33,0,.6.34.6H490.77c.38,0,.53-.27.34-.6L421.62,304.09a.42.42,0,0,0-.34-.25" transform="translate(-148.67 -143.8)"/></svg>