<svg xmlns="http://www.w3.org/2000/svg" viewBox="0 0 546.32 320.13">
<path d="M353.17,143.8H297.35c-.2,0-.28.14-.18.31l7.92,13.69a.68.68,0,0,0,.54.31h3.18a.36.36,0,0,1,.36.36v48.28a.36.36,0,0,0,.36.36H323.1a.36.36,0,0,0,.36-.36V160a.47.47,0,0,0-.35-.44l-5.71-1.34c-.19,0-.19-.08,0-.08h21.45a.36.36,0,0,1,.36.36v7.72a1.58,1.58,0,0,1-.18.67l-7.11,12.32a.69.69,0,0,0,0,.62l15.59,27a.69.69,0,0,0,.54.31h15.8c.2,0,.28-.14.18-.31l-15.58-27a.68.68,0,0,1,0-.62l4.89-8.47a1.59,1.59,0,0,0,.18-.67c0-2.93,0-22.94,0-25.87a.36.36,0,0,0-.36-.36" transform="translate(-148.67 -143.8)"/>
<path d="M394,143.8H359.58a.36.36,0,0,0-.36.36v42.47a1.58,1.58,0,0,0,.18.67l11.24,19.49a.69.69,0,0,0,.54.31h35.88a.36.36,0,0,0,.36-.36V193.17a.36.36,0,0,0-.36-.36H367.48c-.2,0-.2,0,0-.08l5.71-1.33a.47.47,0,0,0,.35-.44V180.88a.36.36,0,0,1,.36-.36H397a.36.36,0,0,0,.36-.36v-9.42a.36.36,0,0,0-.36-.36H367.48c-.2,0-.2,0,0-.08l5.71-1.34a.47.47,0,0,0,.35-.44V158.46a.36.36,0,0,1,.36-.36h28.36c.2,0,.28-.14.18-.31l-7.92-13.69a.68.68,0,0,0-.54-.31" transform="translate(-148.67 -143.8)"/>
<path d="M209.94,192.81c-.2,0-.2,0,0-.08l6.69-1.57a.94.94,0,0,0,.53-.39l10.42-18a.19.19,0,0,1,.36,0l11.41,19.76c.1.17,0,.31-.18.31H209.94M227.75,144a.22.22,0,0,0-.18.13L199.63,192.5a.68.68,0,0,1-.54.31h-8.94c-.2,0-.28-.14-.18-.31l7.18-12.44c.09-.15,0-.26-.12-.26H197l-48.17,7c-.2,0-.19.07,0,.09l27.57,2.91a.22.22,0,0,1,.18.35L167,206.79c-.1.17,0,.31.18.31h96.77c.2,0,.28-.14.18-.31l-36.19-62.68a.22.22,0,0,0-.18-.13" transform="translate(-148.67 -143.8)"/>
<path d="M279.69,192.8a.69.69,0,0,1-.54-.31l-18.66-32.33a1,1,0,0,0-.53-.39l-6.72-1.58c-.19,0-.19-.08,0-.08h28.36a.69.69,0,0,1,.54.31L289,170.23a1.57,1.57,0,0,1,.18.67v21.54a.36.36,0,0,1-.36.36h-9.1m10.18-49h-55c-.2,0-.28.14-.18.31l36.19,62.68a.68.68,0,0,0,.54.31H303.1a.36.36,0,0,0,.36-.36V167.07a1.58,1.58,0,0,0-.18-.67l-12.87-22.29a.69.69,0,0,0-.54-.31" transform="translate(-148.67 -143.8)"/>
<path d="M583.87,143.8H558.11c-.2,0-.28.14-.18.31l7.92,13.69a.68.68,0,0,0,.54.31h3.18a.36.36,0,0,1,.36.36v48.28a.36.36,0,0,0,.36.36h13.59a.36.36,0,0,0,.36-.36V144.16a.36.36,0,0,0-.36-.36" transform="translate(-148.67 -143.8)"/>
<path d="M460.58,143.8H447a.36.36,0,0,0-.36.36v32.57c0,.11,0,.16-.06.16s-.07,0-.12-.12L427.6,144.12a.68.68,0,0,0-.54-.31H401.3c-.2,0-.28.14-.18.31L409,157.8a.69.69,0,0,0,.54.31h3.18a.36.36,0,0,1,.36.36v48.28a.36.36,0,0,0,.36.36h13.59a.36.36,0,0,0,.36-.36V174.2c0-.11,0-.16.06-.16s.07,0,.12.12l18.85,32.64a.68.68,0,0,0,.54.31h13.6a.36.36,0,0,0,.36-.36V144.16a.36.36,0,0,0-.36-.36" transform="translate(-148.67 -143.8)"/>
<path d="M638.83,143.8H625.24a.36.36,0,0,0-.36.36v32.57c0,.11,0,.16-.06.16s-.07,0-.12-.12l-18.86-32.66a.68.68,0,0,0-.54-.31H591.72a.36.36,0,0,0-.36.36v62.59a.36.36,0,0,0,.36.36h13.59a.36.36,0,0,0,.36-.36V174.2c0-.11,0-.16.06-.16s.07,0,.12.12l18.85,32.64a.68.68,0,0,0,.54.31h51.27c.2,0,.28-.14.18-.31l-9.58-16.6a.22.22,0,0,1,.18-.35l27.57-2.91c.2,0,.2-.06,0-.09l-48.17-7h-.06c-.15,0-.21.11-.12.26l7.19,12.44c.1.17,0,.31-.18.31H633.14c-.2,0-.2,0,0-.08l5.71-1.34a.47.47,0,0,0,.35-.44V144.16a.36.36,0,0,0-.36-.36" transform="translate(-148.67 -143.8)"/>
<path d="M531.83,143.8H506c-.2,0-.28.14-.18.31l7.92,13.69a.68.68,0,0,0,.54.31h3.23a.36.36,0,0,1,.36.36V181a1.58,1.58,0,0,0,.18.67l14.49,25.09a.69.69,0,0,0,.54.31h30.78a.36.36,0,0,0,.36-.36V180.1c0-.14-.07-.22-.17-.22a.28.28,0,0,0-.14,0l-13.69,7.92a.69.69,0,0,0-.31.54v4.07a.36.36,0,0,1-.36.36H527.64c-.2,0-.2,0,0-.08l4.21-1a.47.47,0,0,0,.35-.44V144.16a.36.36,0,0,0-.36-.36" transform="translate(-148.67 -143.8)"/>
<path d="M471.57,192.81c-.2,0-.2,0,0-.08l6.73-1.57a.94.94,0,0,0,.53-.39l10.42-18a.19.19,0,0,1,.36,0L501,192.49c.1.17,0,.31-.18.31H471.57M489.41,144a.22.22,0,0,0-.18.13l-22.41,38.82a1.57,1.57,0,0,0-.18.67v23.14a.36.36,0,0,0,.36.36h58.6c.2,0,.28-.14.18-.31l-36.19-62.68a.22.22,0,0,0-.18-.13" transform="translate(-148.67 -143.8)"/>
<path d="M312.1,228V249.5h-6.86V228H292.89v-5.92h31.56V228Z" transform="translate(-148.67 -143.8)"/>
<path d="M369.47,231.07a9.79,9.79,0,0,1-.47,3.18,8.3,8.3,0,0,1-1.24,2.37,7.69,7.69,0,0,1-1.73,1.67,9.78,9.78,0,0,1-1.94,1.06l4.78,10.16h-7.37l-4.39-9.37H342.73v9.37h-6.9V222.05h24.66a11.08,11.08,0,0,1,2.65.39,8.86,8.86,0,0,1,3,1.39,8.23,8.23,0,0,1,2.39,2.74A9.11,9.11,0,0,1,369.47,231.07Zm-6.9,0a3.14,3.14,0,0,0-.35-1.59,2.75,2.75,0,0,0-.86-.94,3.16,3.16,0,0,0-1-.45,4.11,4.11,0,0,0-.84-.12H342.73v6.23h16.74a3.22,3.22,0,0,0,.74-.14,3.54,3.54,0,0,0,1-.49,3.24,3.24,0,0,0,.92-1A2.81,2.81,0,0,0,362.57,231.07Z" transform="translate(-148.67 -143.8)"/>
<path d="M411.7,249.5,408.52,244H389.19L386,249.5h-7.33l15.76-27.45h8.82L419,249.5Zm-12.82-22.31-6.27,10.9h12.55Z" transform="translate(-148.67 -143.8)"/>
<path d="M449.57,249.5h-8.78l-14.31-27.45h7.65l11.06,21.64,11.06-21.64h7.65Z" transform="translate(-148.67 -143.8)"/>
<path d="M473.88,249.5V222.05h33.05V228H480.78v4.94h23v5.33h-23v5.33H508v5.92Z" transform="translate(-148.67 -143.8)"/>
<path d="M519.52,249.5V222.05h6.9v21.53h24.35v5.92Z" transform="translate(-148.67 -143.8)"/>
<path d="M322.06,444.45v19.48h-6.21V444.45H304.67v-5.36h28.57v5.36Z" transform="translate(-148.67 -143.8)"/>
<path d="M374,447.25a8.86,8.86,0,0,1-.43,2.87,7.51,7.51,0,0,1-1.12,2.15,7,7,0,0,1-1.56,1.51,8.86,8.86,0,0,1-1.76,1l4.33,9.19h-6.67l-4-8.48h-13v8.48h-6.25V439.09h22.32a10,10,0,0,1,2.4.35,8,8,0,0,1,2.68,1.26,7.45,7.45,0,0,1,2.16,2.48A8.24,8.24,0,0,1,374,447.25Zm-6.25,0a2.84,2.84,0,0,0-.32-1.44,2.49,2.49,0,0,0-.78-.85,2.86,2.86,0,0,0-.94-.41,3.72,3.72,0,0,0-.76-.11H349.78v5.64h15.15a2.92,2.92,0,0,0,.67-.12,3.21,3.21,0,0,0,.94-.44,2.94,2.94,0,0,0,.83-.87A2.54,2.54,0,0,0,367.73,447.25Z" transform="translate(-148.67 -143.8)"/>
<path d="M412.19,463.93l-2.87-5H391.82l-2.87,5h-6.64l14.26-24.84h8l14.26,24.84Zm-11.6-20.19-5.68,9.86h11.35Z" transform="translate(-148.67 -143.8)"/>
<path d="M446.47,463.93h-7.95l-13-24.84h6.92l10,19.59,10-19.59h6.92Z" transform="translate(-148.67 -143.8)"/>
<path d="M468.47,463.93V439.09h29.91v5.36H474.72v4.47h20.83v4.83H474.72v4.83h24.59v5.36Z" transform="translate(-148.67 -143.8)"/>
<path d="M509.77,463.93V439.09H516v19.48h22v5.36Z" transform="translate(-148.67 -143.8)"/>
<path d="M519.23,391.91l52.95-5.59c.38,0,.38-.12,0-.17l-92.51-13.54h-.11c-.29,0-.4.21-.23.5l13.8,23.9c.19.33,0,.59-.34.59h-10l15.85,27.45h38.35c.38,0,.53-.27.34-.6l-18.39-31.88A.41.41,0,0,1,519.23,391.91Z" transform="translate(-148.67 -143.8)"/>
<path d="M387.08,397.6c-.38,0-.39-.07,0-.16l12.85-3a1.81,1.81,0,0,0,1-.75l20-34.66a.36.36,0,0,1,.69,0l21.91,38c.19.33,0,.59-.34.59l-56.11,0m34.2-93.76a.42.42,0,0,0-.34.25L367.29,397a1.31,1.31,0,0,1-1,.59H349.1c-.38,0-.53-.27-.34-.59l13.8-23.9c.17-.29.07-.5-.23-.5h-.11l-92.51,13.54c-.38.06-.37.13,0,.17l52.95,5.59a.41.41,0,0,1,.34.67L304.6,424.46c-.19.33,0,.6.34.6H490.77c.38,0,.53-.27.34-.6L421.62,304.09a.42.42,0,0,0-.34-.25" transform="translate(-148.67 -143.8)"/></svg>